<svg width="64" height="78" viewBox="0 0 68 78" fill="none" xmlns="http://www.w3.org/2000/svg">
<path d="M0.200672 71.5V75.4C0.200672 76.836 1.36471 78 2.80072 78H65.2007C66.6367 78 67.8008 76.836 67.8008 75.4V71.5H0.200672Z" fill="#394D5C"/>
<path d="M0.200672 71.5V75.4C0.200672 76.836 1.36471 78 2.80072 78H65.2007C66.6367 78 67.8008 76.836 67.8008 75.4V71.5H0.200672Z" fill="#394D5C"/>
<path d="M64.1915 71.5V75.4C64.1915 76.836 63.0274 78 61.5914 78H65.1998C66.6358 78 67.7999 76.836 67.7999 75.4V71.5H64.1915Z" fill="#2C4252"/>
<path d="M66.4999 72.8001H1.50005C0.708903 72.8001 0.101225 72.0993 0.213125 71.3162L0.768384 67.5045L1.8844 66.3072L1.10706 65.1793L5.69729 33.6714L6.65872 32.4585L6.03676 31.3413L9.68628 6.2929L10.6141 5.31076L10.0157 4.03247L10.4405 1.11603C10.5319 0.475705 11.0804 1.52588e-05 11.7273 1.52588e-05H14.6191L15.7632 0.784723L16.9621 1.52588e-05H22.4304L23.4846 0.784723L24.7742 1.52588e-05H27.6759L28.8972 0.784723L30.0612 1.52588e-05H37.965L39.2831 0.627782L40.3398 1.52588e-05H43.2304L44.4184 0.784723L45.5766 1.52588e-05H51.0299L52.2451 0.627782L53.3828 1.52588e-05H53.8836L67.7867 71.3162C67.8988 72.0993 67.2909 72.8001 66.4999 72.8001Z" fill="#0E8742"/>
<path d="M67.7869 71.3162L67.233 67.5147L66.1296 66.4036L66.8953 65.1956L62.3036 33.6792L61.2185 32.6952L61.9618 31.3336L58.3168 6.3155L57.3854 5.30872L57.9802 4.00501L57.5593 1.11618C57.4678 0.475705 56.9193 1.52588e-05 56.2724 1.52588e-05H53.3765L52.6921 0.0836652C52.9565 0.0836652 53.1764 0.0794277 53.3835 0.217222C53.683 0.416381 53.8967 0.737484 53.9509 1.11603L64.1785 71.316C64.2904 72.0992 63.6827 72.7999 62.8915 72.7999H66.5001C67.2909 72.8001 67.8988 72.0993 67.7869 71.3162Z" fill="#0E8742"/>
<path d="M33.9998 40.1771C29.0499 40.1771 25.0228 36.7332 25.0228 32.5001C25.0228 28.2669 29.0499 24.823 33.9998 24.823C38.9498 24.823 42.9769 28.2669 42.9769 32.5001C42.9769 36.7332 38.9498 40.1771 33.9998 40.1771ZM33.9998 27.1771C30.348 27.1771 27.3769 29.565 27.3769 32.5001C27.3769 35.4352 30.348 37.823 33.9998 37.823C37.6517 37.823 40.6228 35.4351 40.6228 32.5001C40.6228 29.5651 37.6519 27.1771 33.9998 27.1771Z" fill="#FAFAFA"/>
<path d="M44.3999 58.3765C43.7497 58.3765 43.2228 57.8495 43.2228 57.1994C43.2228 53.5477 39.0855 50.577 33.9998 50.577C28.9143 50.577 24.7768 53.5477 24.7768 57.1994C24.7768 57.8495 24.2498 58.3765 23.5998 58.3765C22.9497 58.3765 22.4227 57.8495 22.4227 57.1994C22.4227 52.2497 27.6162 48.2228 33.9998 48.2228C40.3834 48.2228 45.577 52.2497 45.577 57.1994C45.577 57.8495 45.0499 58.3765 44.3999 58.3765Z" fill="#FAFAFA"/>
<path d="M33.9998 16.7771C29.7667 16.7771 26.3227 13.9163 26.3227 10.4001C26.3227 9.75002 26.8497 9.22301 27.4998 9.22301C28.1498 9.22301 28.6769 9.75002 28.6769 10.4001C28.6769 12.6183 31.0647 14.423 33.9998 14.423C36.935 14.423 39.3228 12.6183 39.3228 10.4001C39.3228 9.75002 39.8497 9.22301 40.4999 9.22301C41.1501 9.22301 41.677 9.75002 41.677 10.4001C41.677 13.9163 38.233 16.7771 33.9998 16.7771Z" fill="#FAFAFA"/>
<path d="M28.11 6.37671L39.89 6.37624C40.2314 6.37624 40.5556 6.22809 40.7792 5.97039C41.0029 5.71253 41.1035 5.37056 41.0553 5.03266L40.3373 1.52588e-05H37.9499L38.5328 4.02227L29.467 4.02259L30.0631 1.52588e-05H27.676L26.9445 5.03329C26.8963 5.37103 26.9971 5.71316 27.2206 5.97102C27.4442 6.22872 27.7688 6.37671 28.11 6.37671Z" fill="#FAFAFA"/>
<path d="M22.1142 11.577L45.8853 11.576C46.2267 11.576 46.5509 11.428 46.7746 11.1702C46.9982 10.9123 47.0988 10.5703 47.0506 10.2325L45.5889 1.52588e-05H43.2241C43.2241 0.0551018 43.2266 0.110502 43.2346 0.16653L44.5283 9.22206L23.4712 9.22285L24.7651 0.16653C24.7731 0.110502 24.7756 0.0551018 24.7756 1.52588e-05H22.4108L20.9489 10.2336C20.9007 10.5713 21.0015 10.9134 21.2249 11.1713C21.4486 11.429 21.773 11.577 22.1142 11.577Z" fill="#FAFAFA"/>
<path d="M10.5998 4.0229C10.4066 4.0229 10.2127 4.00909 10.0229 3.98194L9.68361 6.31142C9.68439 6.31158 9.68502 6.31174 9.6858 6.31189C9.98682 6.35505 10.2943 6.37703 10.5998 6.37703C14.1161 6.37703 16.9768 3.51629 16.9768 1.52588e-05H14.6227C14.6227 2.21823 12.818 4.0229 10.5998 4.0229Z" fill="#FAFAFA"/>
<path d="M50.7124 72.634L49.2266 62.2332C49.1438 61.6533 48.6472 61.2226 48.0613 61.2226L19.9385 61.223C19.3528 61.223 18.8561 61.6538 18.7732 62.2337L17.2874 72.6336C17.2794 72.6896 17.2769 72.745 17.2769 72.8001H19.6417L20.9592 63.5771L47.0404 63.5766L48.358 72.7999H50.7229C50.7228 72.7451 50.7202 72.6899 50.7124 72.634Z" fill="#FAFAFA"/>
<path d="M55.9651 72.6336L53.7365 57.0331C53.6536 56.4532 53.1571 56.0225 52.5712 56.0225L15.4283 56.023C14.8426 56.023 14.3459 56.4538 14.263 57.0336L12.0344 72.6336C12.0264 72.6896 12.0239 72.745 12.0239 72.7999H14.3887L16.4491 58.377L51.5502 58.3765L53.6106 72.7999H55.9756C55.9756 72.745 55.9731 72.6896 55.9651 72.6336Z" fill="#FAFAFA"/>
<path d="M57.3998 6.37703C57.7054 6.37703 58.0128 6.35505 58.3138 6.31189C58.3146 6.31174 58.3154 6.31158 58.3162 6.31142L57.9769 3.98194C57.7872 4.00909 57.5932 4.0229 57.3998 4.0229C55.1816 4.0229 53.3769 2.21823 53.3769 1.52588e-05H51.0228C51.0228 3.51629 53.8836 6.37703 57.3998 6.37703Z" fill="#FAFAFA"/>
<path d="M7.87643 72.7994C7.87643 68.9023 4.96908 65.6324 1.10754 65.1769L0.768387 67.5049C0.780942 67.5067 0.793027 67.5096 0.805739 67.511C3.49462 67.8148 5.5223 70.0884 5.5223 72.7994V72.7999H7.87643C7.87643 72.7999 7.87643 72.7996 7.87643 72.7994Z" fill="#FAFAFA"/>
<path d="M53.377 1.52588e-05H52.6638C52.9286 1.52588e-05 53.1759 0.0806833 53.3831 0.218635C53.3792 0.146128 53.377 0.073307 53.377 1.52588e-05Z" fill="#D0E2ED"/>
<path d="M57.3998 4.0229C56.0528 4.0229 54.8591 3.35668 54.1287 2.33719L54.6245 5.74047C55.464 6.14805 56.4056 6.37702 57.3998 6.37702C57.7054 6.37702 58.0128 6.35505 58.3139 6.31189L58.3162 6.31142L58.1003 4.82927L57.9767 3.98194C57.787 4.00909 57.593 4.0229 57.3998 4.0229Z" fill="#D0E2ED"/>
<path d="M5.69666 33.6772H62.3032L61.9601 31.3231H6.03974L5.69666 33.6772Z" fill="#FAFAFA"/>
<path d="M67.2316 67.5049L66.8924 65.1769C63.0307 65.6324 60.1234 68.9023 60.1234 72.7994V72.7999H62.4774C62.4774 72.7998 62.4774 72.7996 62.4774 72.7994C62.4774 70.0884 64.5052 67.8148 67.1941 67.511C67.2068 67.5096 67.219 67.5067 67.2316 67.5049Z" fill="#FAFAFA"/>
</svg>
