<svg width="64" height="78" viewBox="0 0 64 78" fill="none" xmlns="http://www.w3.org/2000/svg">
<path d="M7.51711 13.8371H56.4829V58.963H7.51711V13.8371Z" fill="#394D5C"/>
<path d="M60.9584 78H3.04159C2.52149 78 2.09995 77.5785 2.09995 77.0584V71.2515H61.8999V77.0584C61.9 77.5785 61.4783 78 60.9584 78Z" fill="#D0E2ED"/>
<path d="M58.2902 71.2515V77.0584C58.2902 77.5785 57.8687 78 57.3486 78H60.9582C61.4783 78 61.8999 77.5785 61.8999 77.0584V71.2515H58.2902Z" fill="#AABFCF"/>
<path d="M55.4 13.8371H60.6V58.963H55.4V13.8371Z" fill="#D0E2ED"/>
<path d="M60.6 13.8371V19.2096H55.4V13.8371H60.6Z" fill="#AABFCF"/>
<path d="M3.40005 13.8371H8.6V58.963H3.40005V13.8371Z" fill="#D0E2ED"/>
<path d="M8.60001 13.8371V19.2096H3.40005V13.8371H8.60001Z" fill="#AABFCF"/>
<path d="M42.2552 23.3421L36.0684 20.8673C35.9571 20.8227 35.8385 20.8 35.7187 20.8H28.2814C28.1617 20.8 28.0429 20.8229 27.9318 20.8673L21.7448 23.3421C21.6489 23.3804 21.5601 23.4342 21.4818 23.5014L13.1336 30.657C12.772 30.9669 12.6987 31.498 12.9628 31.8943L17.1776 38.2166C17.4661 38.6492 18.0507 38.7662 18.4834 38.4777L20.136 37.376C20.7617 36.9588 21.5999 37.4074 21.5999 38.1594V50.7C21.5999 51.418 22.182 52 22.8999 52H41.1C41.818 52 42.3999 51.418 42.3999 50.7V38.1594C42.3999 37.4074 43.2381 36.9588 43.8639 37.376L45.5164 38.4777C45.9491 38.7662 46.5337 38.6492 46.8222 38.2166L51.037 31.8943C51.3012 31.498 51.2279 30.9669 50.8663 30.657L42.5182 23.5014C42.4399 23.4342 42.3511 23.3804 42.2552 23.3421Z" fill="#118DF0"/>
<path d="M47.6 21.977H16.4C15.7498 21.977 15.2229 21.45 15.2229 20.8C15.2229 20.1499 15.7498 19.6229 16.4 19.6229H47.6C48.2502 19.6229 48.7771 20.1499 48.7771 20.8C48.7771 21.45 48.2502 21.977 47.6 21.977Z" fill="#D0E2ED"/>
<path d="M63.2 0.94165V14.3C63.2 15.0181 62.6179 15.6 61.9 15.6H2.09995C1.38194 15.6 0.800003 15.0179 0.800003 14.3V0.94165C0.800003 0.421545 1.22155 0 1.74165 0H62.2583C62.7785 0 63.2 0.421545 63.2 0.94165Z" fill="#887575"/>
<path d="M57.0584 10.4001H6.9416C6.4215 10.4001 5.99995 9.97851 5.99995 9.4584V6.1416C5.99995 5.6215 6.4215 5.19995 6.9416 5.19995H57.0582C57.5784 5.19995 57.9999 5.6215 57.9999 6.1416V9.45825C58 9.97835 57.5784 10.4001 57.0584 10.4001Z" fill="#FAFAFA"/>
<path d="M62.2583 0H58.6487C59.1688 0 59.5903 0.421545 59.5903 0.94165V14.3C59.5903 15.0181 59.0084 15.6 58.2904 15.6H61.9001C62.6181 15.6 63.2 15.0179 63.2 14.3V0.94165C63.2 0.421545 62.7785 0 62.2583 0Z" fill="#806666"/>
<path d="M55.4 15.6V19.2097H8.6V15.6H55.4Z" fill="#2C4252"/>
<path d="M57.0584 5.19995H53.4487C53.9689 5.19995 54.3904 5.6215 54.3904 6.1416V9.45825C54.3904 9.97835 53.9689 10.3999 53.4487 10.3999H57.0584C57.5785 10.3999 58.0001 9.97835 58.0001 9.45825V6.1416C58.0001 5.62165 57.5784 5.19995 57.0584 5.19995Z" fill="#F0E9E9"/>
<path d="M63.2 71.5001C63.2 72.2181 62.6179 72.8001 61.9 72.8001H2.09995C1.38194 72.8001 0.800003 72.218 0.800003 71.5001V58.5C0.800003 57.782 1.3821 57.2001 2.09995 57.2001H61.9C62.6181 57.2001 63.2 57.782 63.2 58.5V71.5001Z" fill="#887575"/>
<path d="M57.0584 67.6H6.9416C6.4215 67.6 5.99995 67.1784 5.99995 66.6583V63.3417C5.99995 62.8215 6.4215 62.4 6.9416 62.4H57.0582C57.5784 62.4 57.9999 62.8215 57.9999 63.3417V66.6583C58 67.1784 57.5784 67.6 57.0584 67.6Z" fill="#394D5C"/>
<path d="M30.823 62.4H33.1771V67.6H30.823V62.4Z" fill="#D0E2ED"/>
<path d="M61.9001 57.2001H58.2904C59.0084 57.2001 59.5903 57.782 59.5903 58.5V71.5001C59.5903 72.2181 59.0083 72.8001 58.2904 72.8001H61.9001C62.6181 72.8001 63.2 72.218 63.2 71.5001V58.5C63.2 57.782 62.6181 57.2001 61.9001 57.2001Z" fill="#806666"/>
<path d="M57.0584 62.4H53.4486C53.9687 62.4 54.3902 62.8215 54.3902 63.3417V66.6583C54.3902 67.1784 53.9687 67.6 53.4486 67.6H57.0584C57.5785 67.6 58.0001 67.1784 58.0001 66.6583V63.3417C58.0001 62.8215 57.5784 62.4 57.0584 62.4Z" fill="#2C4252"/>
<path d="M42.2552 23.3421L36.0684 20.8673C35.9571 20.8227 35.8385 20.8 35.7187 20.8H28.2814C28.1617 20.8 28.0429 20.8229 27.9318 20.8673L21.7448 23.3421C21.6489 23.3804 21.5601 23.4342 21.4818 23.5014L13.1336 30.657C12.772 30.9669 12.6987 31.498 12.9628 31.8943L17.1776 38.2166C17.4661 38.6492 18.0507 38.7662 18.4834 38.4777L20.136 37.376C20.7617 36.9588 21.5999 37.4074 21.5999 38.1594V50.7C21.5999 51.418 22.182 52 22.8999 52H41.1C41.818 52 42.3999 51.418 42.3999 50.7V38.1594C42.3999 37.4074 43.2381 36.9588 43.8639 37.376L45.5164 38.4777C45.9491 38.7662 46.5337 38.6492 46.8222 38.2166L51.037 31.8943C51.3012 31.498 51.2279 30.9669 50.8663 30.657L42.5182 23.5014C42.4399 23.4342 42.3511 23.3804 42.2552 23.3421Z" fill="#118DF0"/>
<path d="M41.9212 38.4777L40.2686 37.376C39.6429 36.9588 38.8047 37.4074 38.8047 38.1594V50.7C38.8047 51.418 38.2227 52 37.5047 52H41.1001C41.8181 52 42.4 51.418 42.4 50.7V38.6339C42.2345 38.6263 42.0691 38.5763 41.9212 38.4777Z" fill="#1179F0"/>
<path d="M50.8664 30.657L42.5182 23.5014C42.4399 23.4342 42.3509 23.3804 42.255 23.3421L36.0682 20.8673C35.957 20.8227 35.8383 20.8 35.7186 20.8H32.1232C32.243 20.8 32.3618 20.8229 32.4729 20.8673L38.6597 23.3421C38.7556 23.3804 38.8444 23.4342 38.9227 23.5014L47.2709 30.657C47.6325 30.967 47.7058 31.498 47.4417 31.8943L43.8083 37.3444C43.8268 37.3551 43.8456 37.3641 43.8639 37.3761L45.5164 38.4779C45.9491 38.7663 46.5337 38.6494 46.8222 38.2167L51.037 31.8945C51.3013 31.498 51.228 30.967 50.8664 30.657Z" fill="#1179F0"/>
<path d="M35.9 20.8C35.9 22.9538 34.1539 24.7 32 24.7C29.8461 24.7 28.1 22.9538 28.1 20.8H35.9Z" fill="#1179F0"/>
<path d="M28.1 42.7771C27.4498 42.7771 26.9229 42.2501 26.9229 41.6V32.3771H26.7999C26.1497 32.3771 25.6228 31.8501 25.6228 31.2C25.6228 30.55 26.1497 30.0229 26.7999 30.0229H28.1C28.7502 30.0229 29.2771 30.55 29.2771 31.2V41.6C29.2771 42.2501 28.7502 42.7771 28.1 42.7771Z" fill="#D0E2ED"/>
<path d="M34.5999 42.7771C32.5171 42.7771 30.823 41.0828 30.823 39V33.8001C30.823 31.7173 32.5173 30.0229 34.5999 30.0229C36.6825 30.0229 38.377 31.7173 38.377 33.8001V39C38.3772 41.0828 36.6827 42.7771 34.5999 42.7771ZM34.5999 32.3771C33.8154 32.3771 33.1771 33.0153 33.1771 33.8001V39C33.1771 39.7847 33.8154 40.423 34.5999 40.423C35.3846 40.423 36.0229 39.7847 36.0229 39V33.8001C36.0231 33.0153 35.3846 32.3771 34.5999 32.3771Z" fill="#D0E2ED"/>
<path d="M21.5999 45.6229H42.3999V47.9771H21.5999V45.6229Z" fill="#D0E2ED"/>
</svg>
